{"title":"Mr.Poppers.Penguins.2011.CAM x264 Feel-Free","uid":6528373,"size":1269722711,"categoryP":"video","categoryS":"movies","magnet":"?xt=urn:btih:f034b9656b94d1aeef4e45c8ab86edb1a9a2c558&amp;dn=Mr.Poppers.Penguins.2011.CAM+x264+Feel-Free&amp;tr=udp%3A%2F%2Ftracker.openbittorrent.com%3A80&amp;tr=udp%3A%2F%2Fopen.demonii.com%3A1337&amp;tr=udp%3A%2F%2Ftracker.coppersurfer.tk%3A6969&amp;tr=udp%3A%2F%2Fexodus.desync.com%3A6969","seeders":1,"leechers":1,"uploader":".BONE.","files":8,"time":1310233982,"description":"Genre:Comedy | Family\nLanguage:English\n &lt;a href=&quot;\nhttp://www.imdb.com/title/tt1396218/&quot; rel=&quot;nofollow&quot; target=&quot;_NEW&quot;&gt;\nhttp://www.imdb.com/title/tt1396218/&lt;/a&gt;\n\nSource:EPID/FOOKKNOWS Thanks!\n\nFormat : MPEG-4\nFormat profile : Base Media\nCodec ID : isom\nFile size : 1.18 GiB\nDuration : 1h 27mn\nOverall bit rate : 1 937 Kbps\n\nVideo\nID : 1\nFormat : AVC\nFormat/Info : Advanced Video Codec\nFormat profile : &lt;a class=&quot;__cf_email__&quot; href=&quot;/cdn-cgi/l/email-protection&quot; data-cfemail=&quot;99d1f0fef1d9d5adb7a8&quot;&gt;[email&amp;#160;protected]&lt;/a&gt;&lt;script cf-hash='f9e31' type=&quot;text/javascript&quot;&gt;\n/* &lt;![CDATA[ */!function(){try{var t=&quot;currentScript&quot;in document?document.currentScript:function(){for(var t=document.getElementsByTagName(&quot;script&quot;),e=t.length;e--;)if(t[e].getAttribute(&quot;cf-hash&quot;))return t[e]}();if(t&amp;&amp;t.previousSibling){var e,r,n,i,c=t.previousSibling,a=c.getAttribute(&quot;data-cfemail&quot;);if(a){for(e=&quot;&quot;,r=parseInt(a.substr(0,2),16),n=2;a.length-n;n+=2)i=parseInt(a.substr(n,2),16)^r,e+=String.fromCharCode(i);e=document.createTextNode(e),c.parentNode.replaceChild(e,c)}}}catch(u){}}();/* ]]&gt; */&lt;/script&gt;\nFormat settings, CABAC : Yes\nFormat settings, ReFrames : 3 frames\nCodec ID : avc1\nCodec ID/Info : Advanced Video Coding\nDuration : 1h 27mn\nBit rate mode : Variable\nBit rate : 1 691 Kbps\nMaximum bit rate : 8 856 Kbps\nWidth : 720 pixels\nHeight : 400 pixels\nDisplay aspect ratio : 16:9\nFrame rate mode : Constant\nFrame rate : 25.000 fps\nColor space : YUV\nChroma subsampling : 4:2:0\nBit depth : 8 bits\nScan type : Progressive\nBits/(Pixel*Frame) : 0.235\nStream size : 1.04 GiB (88%)\nWriting library : x264\n\nAudio\nID : 2\nFormat : AAC\nFormat/Info : Advanced Audio Codec\nFormat version : Version 4\nFormat profile : LC\nFormat settings, SBR : No\nCodec ID : 40\nDuration : 1h 27mn\nBit rate mode : Variable\nBit rate : 224 Kbps\nMaximum bit rate : 259 Kbps\nChannel(s) : 2 channels\nChannel positions : Front: L R\nSampling rate : 44.1 KHz\nStream size : 140 MiB (12%)\n\n\nPlot:\nThe life of a businessman begins to change after he inherits six penguins, and as he transforms his apartment into a winter wonderland, his professional side starts to unravel.\n &lt;a href=&quot;\nhttp://leetleech.org/images/35541819832728418873.png&quot; rel=&quot;nofollow&quot; target=&quot;_NEW&quot;&gt;\nhttp://leetleech.org/images/35541819832728418873.png&lt;/a&gt;\n &lt;a href=&quot;\nhttp://leetleech.org/images/28539226513274263205.png&quot; rel=&quot;nofollow&quot; target=&quot;_NEW&quot;&gt;\nhttp://leetleech.org/images/28539226513274263205.png&lt;/a&gt;\n &lt;a href=&quot;\nhttp://leetleech.org/images/28803748377573779972.png&quot; rel=&quot;nofollow&quot; target=&quot;_NEW&quot;&gt;\nhttp://leetleech.org/images/28803748377573779972.png&lt;/a&gt;\n &lt;a href=&quot;\nhttp://leetleech.org/images/50852325376670479828.png&quot; rel=&quot;nofollow&quot; target=&quot;_NEW&quot;&gt;\nhttp://leetleech.org/images/50852325376670479828.png&lt;/a&gt;","torrent":{"xt":"urn:btih:f034b9656b94d1aeef4e45c8ab86edb1a9a2c558","amp;dn":"Mr.Poppers.Penguins.2011.CAM+x264+Feel-Free","amp;tr":["udp%3A%2F%2Ftracker.openbittorrent.com%3A80","udp%3A%2F%2Fopen.demonii.com%3A1337","udp%3A%2F%2Ftracker.coppersurfer.tk%3A6969","udp%3A%2F%2Fexodus.desync.com%3A6969"],"infoHash":"f034b9656b94d1aeef4e45c8ab86edb1a9a2c558","infoHashBuffer":{"type":"Buffer","data":[240,52,185,101,107,148,209,174,239,78,69,200,171,134,237,177,169,162,197,88]},"announce":[],"urlList":[]}}